<svg width="30" height="31" viewBox="0 0 30 31" fill="none" xmlns="http://www.w3.org/2000/svg">
<path d="M13.3594 7.26758C13.3594 7.7027 13.5322 8.12 13.8399 8.42768C14.1476 8.73535 14.5649 8.9082 15 8.9082C15.4351 8.9082 15.8524 8.73535 16.1601 8.42768C16.4678 8.12 16.6406 7.7027 16.6406 7.26758C16.6406 6.83246 16.4678 6.41516 16.1601 6.10748C15.8524 5.7998 15.4351 5.62695 15 5.62695C14.5649 5.62695 14.1476 5.7998 13.8399 6.10748C13.5322 6.41516 13.3594 6.83246 13.3594 7.26758ZM13.3594 15.4707C13.3594 15.9058 13.5322 16.3231 13.8399 16.6308C14.1476 16.9385 14.5649 17.1113 15 17.1113C15.4351 17.1113 15.8524 16.9385 16.1601 16.6308C16.4678 16.3231 16.6406 15.9058 16.6406 15.4707C16.6406 15.0356 16.4678 14.6183 16.1601 14.3106C15.8524 14.0029 15.4351 13.8301 15 13.8301C14.5649 13.8301 14.1476 14.0029 13.8399 14.3106C13.5322 14.6183 13.3594 15.0356 13.3594 15.4707ZM13.3594 23.6738C13.3594 24.1089 13.5322 24.5262 13.8399 24.8339C14.1476 25.1416 14.5649 25.3145 15 25.3145C15.4351 25.3145 15.8524 25.1416 16.1601 24.8339C16.4678 24.5262 16.6406 24.1089 16.6406 23.6738C16.6406 23.2387 16.4678 22.8214 16.1601 22.5137C15.8524 22.2061 15.4351 22.0332 15 22.0332C14.5649 22.0332 14.1476 22.2061 13.8399 22.5137C13.5322 22.8214 13.3594 23.2387 13.3594 23.6738Z" fill="#333333"/>
</svg>
