<svg width="312" height="224" viewBox="0 0 312 224" fill="none" xmlns="http://www.w3.org/2000/svg">
<path d="M97.7199 224V219.921H97.04L95.7202 212.122C95.5402 211.142 94.7003 210.422 93.7005 210.422H86.0615V214.501H87.2814L86.7414 219.921H86.0615V224H90.8808V219.781L90.9208 219.281H92.7806L92.8806 219.921H92.2807V224H97.7199ZM92.4207 217.221H91.1208L91.6008 212.382L92.4207 217.221Z" fill="url(#paint0_linear_45_8)"/>
<path d="M122.43 224V219.861H120.45V216.461H121.13V214.441H120.45V213.481C120.45 213.281 120.61 213.142 120.79 213.142H122.49V210.422H118.431C117.291 210.422 116.391 211.322 116.391 212.442V214.441H115.711V216.461H116.391V219.861H115.711V224H122.43Z" fill="url(#paint1_linear_45_8)"/>
<path d="M145.955 224V219.901H144.595V214.841C144.595 214.461 144.895 214.161 145.275 214.161C145.655 214.161 145.955 214.461 145.955 214.841V216.141H148.574C149.334 216.141 149.934 215.541 149.934 214.781V214.461C149.934 213.342 149.034 212.462 147.954 212.462H145.155C144.595 212.462 144.135 212.922 144.135 213.482V212.462H139.815V216.541H140.495V219.901H139.815V224H145.955Z" fill="url(#paint2_linear_45_8)"/>
<path d="M168.303 214.361C169.383 214.361 170.263 213.481 170.263 212.382C170.263 211.302 169.383 210.422 168.303 210.422C167.204 210.422 166.324 211.302 166.324 212.382C166.324 213.481 167.204 214.361 168.303 214.361ZM171.343 224V219.901H170.663V214.061C170.063 214.861 169.083 215.181 168.284 215.181C167.404 215.181 166.524 214.801 165.924 214.061V216.541H166.604V219.901H165.924V224H171.343Z" fill="url(#paint3_linear_45_8)"/>
<path d="M195.238 224C196.358 224 197.278 223.12 197.338 222.02V219.921H193.279V221.6C193.279 221.98 192.959 222.28 192.599 222.28C192.219 222.28 191.919 221.98 191.919 221.6V214.841C191.919 214.461 192.219 214.161 192.599 214.161C192.959 214.161 193.279 214.461 193.279 214.841V216.141H197.338V214.421C197.278 213.322 196.358 212.462 195.238 212.462H189.859C188.779 212.462 187.859 213.322 187.819 214.401V222.04C187.859 223.14 188.779 224 189.859 224H195.238Z" fill="url(#paint4_linear_45_8)"/>
<path d="M225.938 224V219.861H225.259V214.421C225.119 213.322 224.179 212.462 223.059 212.462H217.94C216.84 212.462 215.9 213.322 215.84 214.421V216.141H219.939V215.521C219.939 215.161 220.219 214.861 220.579 214.861C220.939 214.861 221.219 215.161 221.219 215.521V218.481C221.219 217.901 220.759 217.461 220.199 217.461H217.88C216.8 217.461 215.9 218.321 215.84 219.401V222.04C215.9 223.14 216.8 224 217.88 224H220.139C220.699 224 221.159 223.54 221.159 222.98V224H225.938ZM220.539 222.28C220.179 222.28 219.859 221.98 219.859 221.6V219.901C219.859 219.521 220.179 219.221 220.539 219.221C220.919 219.221 221.219 219.521 221.219 219.901V221.6C221.219 221.98 220.919 222.28 220.539 222.28Z" fill="url(#paint5_linear_45_8)"/>
<path d="M31.518 175.231C31.518 181.116 26.1941 186.496 20.3098 186.496C14.4254 186.496 9.10149 181.116 9.10149 175.231C9.10149 169.347 14.4254 164.023 20.3098 164.023C26.1941 164.023 31.518 169.347 31.518 175.231ZM33.5351 189.56C37.4283 185.935 39.9242 180.812 39.9242 175.287C39.9242 164.752 30.8455 155.673 20.3098 155.673C9.77399 155.673 0.695312 164.752 0.695312 175.287C0.695312 185.823 9.77399 194.902 20.3098 194.902C21.853 194.902 23.365 194.707 24.8218 194.341H41.6055V187.672H37.6265L33.5351 189.56Z" fill="#002D2B"/>
<path d="M71.5039 180.723H71.5599L80.6386 194.341H91.2864L80.3584 180.331C85.1779 179.154 89.0448 174.895 89.0448 168.45C89.0448 161.221 83.5527 156.233 77.3882 156.233H71.5039H69.4303H63.0977V194.341H71.5038L71.5039 180.723ZM75.9872 162.846C78.453 162.846 81.0309 164.976 81.0309 168.45C81.0309 172.093 78.453 174.111 75.9872 174.111H71.5039V162.846H75.9872Z" fill="#002D2B"/>
<path d="M159.012 194.341L151.614 156.233H141.639L133.737 182.965L125.779 156.233H115.804L108.406 194.341H117.653L122.136 168.058L129.59 194.341H137.828L145.281 168.058L149.765 194.341H159.012Z" fill="#002D2B"/>
<path d="M202.248 186.72H188.574V179.042H201.688V171.421H188.574V163.855H202.248V156.233H180.168V194.341H202.248V186.72Z" fill="#002D2B"/>
<path d="M256.411 194.341V156.233H248.005V179.995L234.892 156.233H226.485V194.341H234.892V170.58L248.005 194.341H256.411Z" fill="#002D2B"/>
<path d="M302.898 156.233V178.258C302.898 183.526 301.328 186.496 295.556 186.496C289.84 186.496 288.215 183.526 288.215 178.258V156.233H279.809V179.491C279.809 189.634 285.637 194.902 295.556 194.902C305.476 194.902 311.304 189.634 311.304 179.491V156.233H302.898Z" fill="#002D2B"/>
<path fill-rule="evenodd" clip-rule="evenodd" d="M156 0L189.164 33.3039L186.365 36.1029L171.952 21.5499L141.447 51.9149L138.648 49.1159L169.014 18.7509L156 5.59698L125.635 36.1029L122.836 33.1639L156 0Z" fill="url(#paint6_linear_45_8)"/>
<path fill-rule="evenodd" clip-rule="evenodd" d="M202.318 51.9148L216.871 66.4678L203.717 79.4817L171.952 47.7168L154.601 65.0688L157.399 67.8667L171.952 53.4538L200.918 82.4197L156 127.338L142.986 114.185L173.352 83.8187L170.553 81.0207L140.048 111.386L127.034 98.2317L142.986 82.4197L125.635 65.0688L122.836 67.8667L137.249 82.4197L124.235 95.4337L95.1292 66.4678L109.682 51.9148L106.884 49.1158L89.5322 66.4678L156 132.936L222.468 66.4678L205.116 49.1158L202.318 51.9148Z" fill="url(#paint7_linear_45_8)"/>
<defs>
<linearGradient id="paint0_linear_45_8" x1="0.695751" y1="104" x2="311.305" y2="104" gradientUnits="userSpaceOnUse">
<stop stop-color="#00968F"/>
<stop offset="1" stop-color="#00FFF4"/>
</linearGradient>
<linearGradient id="paint1_linear_45_8" x1="0.695286" y1="104" x2="311.305" y2="104" gradientUnits="userSpaceOnUse">
<stop stop-color="#00968F"/>
<stop offset="1" stop-color="#00FFF4"/>
</linearGradient>
<linearGradient id="paint2_linear_45_8" x1="0.696217" y1="104" x2="311.305" y2="104" gradientUnits="userSpaceOnUse">
<stop stop-color="#00968F"/>
<stop offset="1" stop-color="#00FFF4"/>
</linearGradient>
<linearGradient id="paint3_linear_45_8" x1="0.695789" y1="104" x2="311.305" y2="104" gradientUnits="userSpaceOnUse">
<stop stop-color="#00968F"/>
<stop offset="1" stop-color="#00FFF4"/>
</linearGradient>
<linearGradient id="paint4_linear_45_8" x1="0.695543" y1="104" x2="311.304" y2="104" gradientUnits="userSpaceOnUse">
<stop stop-color="#00968F"/>
<stop offset="1" stop-color="#00FFF4"/>
</linearGradient>
<linearGradient id="paint5_linear_45_8" x1="0.695524" y1="104" x2="311.304" y2="104" gradientUnits="userSpaceOnUse">
<stop stop-color="#00968F"/>
<stop offset="1" stop-color="#00FFF4"/>
</linearGradient>
<linearGradient id="paint6_linear_45_8" x1="0.695427" y1="120" x2="311.304" y2="120" gradientUnits="userSpaceOnUse">
<stop stop-color="#00968F"/>
<stop offset="1" stop-color="#00FFF4"/>
</linearGradient>
<linearGradient id="paint7_linear_45_8" x1="0.695627" y1="120" x2="311.305" y2="120" gradientUnits="userSpaceOnUse">
<stop stop-color="#00968F"/>
<stop offset="1" stop-color="#00FFF4"/>
</linearGradient>
</defs>
</svg>
