<svg width="103" height="16" viewBox="0 0 103 16" fill="none" xmlns="http://www.w3.org/2000/svg">
<path d="M7.49255 0.047534L9.17899 5.22907L14.6281 5.22635L10.2213 8.43143L11.9077 13.613L7.49771 10.4123L3.09092 13.6174L4.77219 8.43414L0.362211 5.23346L5.81128 5.23074L7.49255 0.047534Z" fill="#5368DF"/>
<path d="M29.4926 0.0365477L31.179 5.21808L36.6281 5.21537L32.2213 8.42044L33.9077 13.602L29.4977 10.4013L25.0909 13.6064L26.7722 8.42316L22.3622 5.22247L27.8113 5.21976L29.4926 0.0365477Z" fill="#5368DF"/>
<path d="M51.4926 0.0256224L53.179 5.20716L58.6281 5.20444L54.2213 8.40952L55.9077 13.5911L51.4977 10.3904L47.0909 13.5954L48.7722 8.41223L44.3622 5.21155L49.8113 5.20883L51.4926 0.0256224Z" fill="#5368DF"/>
<path d="M73.4926 0.0146361L75.179 5.19617L80.6281 5.19346L76.2213 8.39853L77.9077 13.5801L73.4977 10.3794L69.0909 13.5845L70.7722 8.40125L66.3622 5.20056L71.8113 5.19785L73.4926 0.0146361Z" fill="#5368DF"/>
<path d="M95.4926 0.00371079L97.179 5.18524L102.628 5.18253L98.2213 8.38761L99.9077 13.5691L95.4977 10.3685L91.0909 13.5735L92.7722 8.39032L88.3622 5.18964L93.8113 5.18692L95.4926 0.00371079Z" fill="#5368DF"/>
</svg>
