<svg width="20" height="20" viewBox="0 0 33 32" fill="none" xmlns="http://www.w3.org/2000/svg">
<circle cx="17" cy="16" r="16" fill="#531EBA"/>
<path d="M11.9038 22V20.608L16.3518 16.384C16.7251 16.032 17.0024 15.7227 17.1838 15.456C17.3651 15.1893 17.4824 14.944 17.5358 14.72C17.5998 14.4853 17.6318 14.2667 17.6318 14.064C17.6318 13.552 17.4558 13.1573 17.1038 12.88C16.7518 12.592 16.2344 12.448 15.5518 12.448C15.0078 12.448 14.5118 12.544 14.0638 12.736C13.6264 12.928 13.2478 13.2213 12.9278 13.616L11.4718 12.496C11.9091 11.9093 12.4958 11.456 13.2318 11.136C13.9784 10.8053 14.8104 10.64 15.7278 10.64C16.5384 10.64 17.2424 10.7733 17.8398 11.04C18.4478 11.296 18.9118 11.664 19.2318 12.144C19.5624 12.624 19.7278 13.1947 19.7278 13.856C19.7278 14.2187 19.6798 14.5813 19.5838 14.944C19.4878 15.296 19.3064 15.6693 19.0398 16.064C18.7731 16.4587 18.3838 16.9013 17.8718 17.392L14.0478 21.024L13.6158 20.24H20.1597V22H11.9038Z" fill="#FAFAFA"/>
</svg>
