<svg width="50" height="50" viewBox="0 0 60 60" fill="none" xmlns="http://www.w3.org/2000/svg">
<circle cx="30" cy="30" r="30" fill="#1eb6ce" fill-opacity="0.64"/>
<path d="M38.7977 23.7282H22.4543C22.0753 23.7282 21.7683 23.3774 21.7683 22.9442C21.7683 22.5111 22.0753 22.1603 22.4543 22.1603H38.9177C39.2967 22.1603 39.6037 21.8094 39.6037 21.3763C39.6037 20.0774 38.6823 19.0244 37.5458 19.0244H21.7683C20.2527 19.0244 19.0244 20.4282 19.0244 22.1603V37.8397C19.0244 39.5718 20.2527 40.9756 21.7683 40.9756H38.7977C39.999 40.9756 40.9756 39.9207 40.9756 38.6237V26.0801C40.9756 24.7831 39.999 23.7282 38.7977 23.7282ZM36.8598 33.9199C36.1022 33.9199 35.4878 33.2177 35.4878 32.3519C35.4878 31.4861 36.1022 30.784 36.8598 30.784C37.6174 30.784 38.2317 31.4861 38.2317 32.3519C38.2317 33.2177 37.6174 33.9199 36.8598 33.9199Z" fill="#FAFAFA"/>
</svg>
